/* XPM */
static char * close_active_xpm[] = {
"30 25 22 1",
" 	c None",
".	c #212121",
"+	c #2FB3AE",
"@	c #007E74",
"#	c #007970",
"$	c #00A699",
"%	c #01E8D6",
"&	c #00CCBB",
"*	c #00AEA0",
"=	c #00AA9D",
"-	c #00CCBC",
";	c #00847A",
">	c #00B3A5",
",	c #00D0BF",
"'	c #00CABA",
")	c #00C9B9",
"!	c #33A5A3",
"~	c #007D73",
"{	c #00AFA1",
"]	c #00AC9E",
"^	c #008479",
"/	c #00B0A2",
"..............................",
"..............................",
"..............................",
"..............................",
"..............................",
"...........+@...#$............",
"..........+%&@.#*%=...........",
"..........@%%-;>%,;...........",
"...........@%%'%,;............",
"............;'%)!.............",
"...........#*%)%&~............",
"..........#>%,!%%&~...........",
"..........$%,;.@%%{...........",
"...........]^...@/............",
"..............................",
"..............................",
"..............................",
"..............................",
"..............................",
"..............................",
"..............................",
"..............................",
"..............................",
"..............................",
".............................."};
