/* XPM */
static char * close_pressed_xpm[] = {
"30 25 51 1",
" 	c None",
".	c #009689",
"+	c #00857A",
"@	c #00877C",
"#	c #00887C",
"$	c #989898",
"%	c #828282",
"&	c #008C81",
"*	c #008479",
"=	c #00897E",
"-	c #7E7E7E",
";	c #9D9D9D",
">	c #008F83",
",	c #00867B",
"'	c #9B9A99",
")	c #F9F9F9",
"!	c #C7C7C8",
"~	c #009084",
"{	c #7F7F7F",
"]	c #C2C2C2",
"^	c #A2A2A2",
"/	c #008C80",
"(	c #828283",
"_	c #C7C8C7",
":	c #868686",
"<	c #CBCBCC",
"[	c #008D81",
"}	c #828383",
"|	c #D2D3D2",
"1	c #CBCBCB",
"2	c #858685",
"3	c #008A7F",
"4	c #D5D5D5",
"5	c #8E8E8E",
"6	c #008D82",
"7	c #C8C7C7",
"8	c #818386",
"9	c #7F8080",
"0	c #8E8D8D",
"a	c #C7C7C7",
"b	c #818485",
"c	c #9C9FA1",
"d	c #008E83",
"e	c #818182",
"f	c #A7A7A7",
"g	c #00887D",
"h	c #A4A4A4",
"i	c #868789",
"j	c #A8A8A8",
"k	c #00897D",
"l	c #00877B",
"..............................",
"..............................",
"..............................",
"..............................",
"..........+.@+...@@...........",
"..........#$%&*=-;>,..........",
".........@')!%~{])^/..........",
".........,())_:])<:[..........",
"..........~}))|)123+..........",
"..........+/:|)456+...........",
"..........[{])4)78[...........",
".........@9])10))ab@..........",
"..........c)1:de))fg..........",
"..........[hi>+=%jkl..........",
"..........+k@...#3@...........",
"..............................",
"..............................",
"..............................",
"..............................",
"..............................",
"..............................",
"..............................",
"..............................",
"..............................",
".............................."};
