/* XPM */
static char * close_inactive_xpm[] = {
"30 25 27 1",
" 	c None",
".	c #282828",
"+	c #242424",
"@	c #005751",
"#	c #004A45",
"$	c #262626",
"%	c #004742",
"&	c #00655E",
"*	c #262526",
"=	c #009A90",
"-	c #008178",
";	c #007E75",
">	c #006760",
",	c #272828",
"'	c #004E48",
")	c #00837A",
"!	c #282827",
"~	c #007A72",
"{	c #252525",
"]	c #252626",
"^	c #007F76",
"/	c #0C5D59",
"(	c #272626",
"_	c #007D74",
":	c #006C65",
"<	c #006962",
"[	c #004E49",
"..............................",
"..............................",
"..............................",
"..............................",
"...........+..................",
"..........+@#$.$%&*...........",
"..........@=-#$%;=>,..........",
"..........#==-';=)'!..........",
"..........+#==~=)'{...........",
"...........]'~=^/(............",
"..........$%;=_=-#+...........",
"..........%;=)/==-#...........",
"..........&=)'$#==:...........",
"..........+<[+.+#:+...........",
"..............................",
"..............................",
"..............................",
"..............................",
"..............................",
"..............................",
"..............................",
"..............................",
"..............................",
"..............................",
".............................."};
