/* XPM */
static char * close_prelight_xpm[] = {
"30 25 20 1",
"   c #282828",
".  c #848484",
"+  c #666666",
"@  c #626262",
"#  c #888888",
"$  c #FFFFFF",
"%  c #BFBFBF",
"&  c #B8B8B8",
"*  c #8F8F8F",
"=  c #6B6B6B",
"-  c #C4C4C4",
";  c #CDCDCD",
">  c #D0D0D0",
",  c #747474",
"'  c #656565",
")  c #959595",
"!  c #919191",
"~  c #6A6A6A",
"{  c #969696",
"]  c #009689",
"                              ",
"                              ",
"                              ",
"                              ",
"                              ",
"           .+   @#            ",
"          .$%+ @&$*           ",
"          +$$%=&$-=           ",
"           +$$;$-=            ",
"            =;$>,             ",
"           @&$>$%'            ",
"          @&$-,$$%'           ",
"          #$-= +$$)           ",
"           !~   +{            ",
"                              ",
"                              ",
"                              ",
"                              ",
"                              ",
"                              ",
"                              ",
"                              ",
"                              ",
"]]]]]]]]]]]]]]]]]]]]]]]]]]]]]]",
"]]]]]]]]]]]]]]]]]]]]]]]]]]]]]]"};
