<?xml version="1.0" encoding="UTF-8" standalone="no"?>
<svg
   xmlns:dc="http://purl.org/dc/elements/1.1/"
   xmlns:cc="http://creativecommons.org/ns#"
   xmlns:rdf="http://www.w3.org/1999/02/22-rdf-syntax-ns#"
   xmlns:svg="http://www.w3.org/2000/svg"
   xmlns="http://www.w3.org/2000/svg"
   xmlns:sodipodi="http://sodipodi.sourceforge.net/DTD/sodipodi-0.dtd"
   xmlns:inkscape="http://www.inkscape.org/namespaces/inkscape"
   height="512"
   viewBox="0 0 512 512"
   width="512"
   version="1.1"
   id="svg16"
   sodipodi:docname="user-trash-full.svg"
   inkscape:version="0.92.2 2405546, 2018-03-11">
  <metadata
     id="metadata22">
    <rdf:RDF>
      <cc:Work
         rdf:about="">
        <dc:format>image/svg+xml</dc:format>
        <dc:type
           rdf:resource="http://purl.org/dc/dcmitype/StillImage" />
      </cc:Work>
    </rdf:RDF>
  </metadata>
  <defs
     id="defs20" />
  <sodipodi:namedview
     pagecolor="#ffffff"
     bordercolor="#666666"
     borderopacity="1"
     objecttolerance="10"
     gridtolerance="10"
     guidetolerance="10"
     inkscape:pageopacity="0"
     inkscape:pageshadow="2"
     inkscape:window-width="640"
     inkscape:window-height="480"
     id="namedview18"
     showgrid="false"
     inkscape:zoom="0.4609375"
     inkscape:cx="256"
     inkscape:cy="256"
     inkscape:window-x="499"
     inkscape:window-y="412"
     inkscape:window-maximized="0"
     inkscape:current-layer="svg16" />
  <path
     d="m 471.95,253.05 c 0,120.9 -98.01,218.91 -218.91,218.91 -120.9,0 -218.91,-98.01 -218.91,-218.91 0,-120.9 98.01,-218.91 218.91,-218.91 120.9,0 218.91,98.01 218.91,218.91"
     id="path2"
     style="fill:#00a193;fill-rule:evenodd"
     inkscape:connector-curvature="0" />
  <path
     d="m256 1c-140.83 0-255 114.17-255 255 0 140.83 114.17 255 255 255 140.83 0 255-114.17 255-255 0-140.83-114.17-255-255-255m8.827 44.931c120.9 0 218.9 98 218.9 218.9 0 120.9-98 218.9-218.9 218.9-120.9 0-218.93-98-218.93-218.9 0-120.9 98.03-218.9 218.93-218.9"
     fill-opacity=".067"
     fill-rule="evenodd"
     id="path4" />
  <path
     d="m256 4.43c-138.94 0-251.57 112.63-251.57 251.57 0 138.94 112.63 251.57 251.57 251.57 138.94 0 251.57-112.63 251.57-251.57 0-138.94-112.63-251.57-251.57-251.57m5.885 38.556c120.9 0 218.9 98 218.9 218.9 0 120.9-98 218.9-218.9 218.9-120.9 0-218.93-98-218.93-218.9 0-120.9 98.03-218.9 218.93-218.9"
     fill-opacity=".129"
     fill-rule="evenodd"
     id="path6" />
  <path
     d="m256 8.36c-136.77 0-247.64 110.87-247.64 247.64 0 136.77 110.87 247.64 247.64 247.64 136.77 0 247.64-110.87 247.64-247.64 0-136.77-110.87-247.64-247.64-247.64m2.942 31.691c120.9 0 218.9 98 218.9 218.9 0 120.9-98 218.9-218.9 218.9-120.9 0-218.93-98-218.93-218.9 0-120.9 98.03-218.9 218.93-218.9"
     fill-opacity=".129"
     fill-rule="evenodd"
     id="path8" />
  <path
     d="m253.04 7.86c-135.42 0-245.19 109.78-245.19 245.19 0 135.42 109.78 245.19 245.19 245.19 135.42 0 245.19-109.78 245.19-245.19 0-135.42-109.78-245.19-245.19-245.19zm0 26.297c120.9 0 218.9 98 218.9 218.9 0 120.9-98 218.9-218.9 218.9-120.9 0-218.93-98-218.93-218.9 0-120.9 98.03-218.9 218.93-218.9z"
     fill="#009689"
     fill-rule="evenodd"
     stroke="#000000"
     stroke-opacity=".31"
     stroke-width="4.904"
     id="path10" />
  <path
     d="m229.03 86.19c-6.111 0-11.219 6.642-12.781 15.75v4.531l11.875 11.875h-55.03c-18.793 0-34.544 13.09-39.34 31.06v8.938l18.281 18.281v58.656 4.813 149.38c0 9.546 3.831 18.18 10.06 24.406l55.16 55.16c11.644 1.914 23.596 2.938 35.781 2.938 120.9 0 218.91-98.01 218.91-218.91 0-6.399-.274-12.74-.813-19l-103.91-103.91c-7.331-7.331-17.308-11.813-28.313-11.813h-20l-28.969-28.969c-2.02-2.02-4.412-3.188-6.969-3.188h-53.938"
     opacity=".25"
     id="path12" />
  <path
     d="m 229.03,86.19 c -6.111,0 -11.219,6.642 -12.781,15.75 v 4.531 h 79.5 v -4.531 c -1.562,-9.108 -6.671,-15.75 -12.781,-15.75 z m -55.938,32.16 c -18.793,0 -34.544,13.09 -39.34,31.06 v 8.938 h 244.5 v -8.938 c -4.804,-17.978 -20.555,-31.06 -39.34,-31.06 h -165.81 m -21.06,55.41 v 61.53 4.813 149.38 c 0,19.09 15.375,34.469 34.469,34.469 h 138.97 c 19.09,0 34.469,-15.375 34.469,-34.469 V 240.113 235.3 173.77 H 152.04 m 43.625,37.19 c 5.54,0 10,4.46 10,10 v 170 c 0,5.54 -4.46,10 -10,10 -5.54,0 -10,-4.46 -10,-10 v -170 c 0,-5.54 4.46,-10 10,-10 m 60.09,0 c 5.54,0 10,4.46 10,10 v 170 c 0,5.54 -4.46,10 -10,10 -5.54,0 -10,-4.46 -10,-10 v -170 c 0,-5.54 4.46,-10 10,-10 m 59.41,0 c 5.54,0 10,4.46 10,10 v 170 c 0,5.54 -4.46,10 -10,10 -5.54,0 -10,-4.46 -10,-10 v -170 c 0,-5.54 4.46,-10 10,-10"
     id="path14"
     style="fill:#242424"
     inkscape:connector-curvature="0" />
</svg>
