<?xml version="1.0" encoding="UTF-8" standalone="no"?>
<svg
   xmlns:dc="http://purl.org/dc/elements/1.1/"
   xmlns:cc="http://creativecommons.org/ns#"
   xmlns:rdf="http://www.w3.org/1999/02/22-rdf-syntax-ns#"
   xmlns:svg="http://www.w3.org/2000/svg"
   xmlns="http://www.w3.org/2000/svg"
   xmlns:sodipodi="http://sodipodi.sourceforge.net/DTD/sodipodi-0.dtd"
   xmlns:inkscape="http://www.inkscape.org/namespaces/inkscape"
   height="512"
   viewBox="0 0 512 512"
   width="512"
   version="1.1"
   id="svg32"
   sodipodi:docname="bleachbit.svg"
   inkscape:version="0.92.2 2405546, 2018-03-11">
  <metadata
     id="metadata38">
    <rdf:RDF>
      <cc:Work
         rdf:about="">
        <dc:format>image/svg+xml</dc:format>
        <dc:type
           rdf:resource="http://purl.org/dc/dcmitype/StillImage" />
      </cc:Work>
    </rdf:RDF>
  </metadata>
  <defs
     id="defs36" />
  <sodipodi:namedview
     pagecolor="#ffffff"
     bordercolor="#666666"
     borderopacity="1"
     objecttolerance="10"
     gridtolerance="10"
     guidetolerance="10"
     inkscape:pageopacity="0"
     inkscape:pageshadow="2"
     inkscape:window-width="1120"
     inkscape:window-height="703"
     id="namedview34"
     showgrid="false"
     inkscape:zoom="0.4609375"
     inkscape:cx="256"
     inkscape:cy="256"
     inkscape:window-x="0"
     inkscape:window-y="27"
     inkscape:window-maximized="0"
     inkscape:current-layer="svg32" />
  <g
     fill-rule="evenodd"
     id="g14">
    <path
       d="m471.95 253.05c0 120.9-98.01 218.9-218.9 218.9-120.9 0-218.9-98.01-218.9-218.9 0-120.9 98.01-218.9 218.9-218.9 120.9 0 218.9 98.01 218.9 218.9"
       fill="#363636"
       id="path2" />
    <path
       d="m256 1c-140.83 0-255 114.17-255 255s114.17 255 255 255 255-114.17 255-255-114.17-255-255-255m8.827 44.931c120.9 0 218.9 98 218.9 218.9s-98 218.9-218.9 218.9-218.93-98-218.93-218.9 98.03-218.9 218.93-218.9"
       fill-opacity=".067"
       id="path4" />
    <g
       fill-opacity=".129"
       id="g10">
      <path
         d="m256 4.433c-138.94 0-251.57 112.63-251.57 251.57s112.63 251.57 251.57 251.57 251.57-112.63 251.57-251.57-112.63-251.57-251.57-251.57m5.885 38.556c120.9 0 218.9 98 218.9 218.9s-98 218.9-218.9 218.9-218.93-98-218.93-218.9 98.03-218.9 218.93-218.9"
         id="path6" />
      <path
         d="m256 8.356c-136.77 0-247.64 110.87-247.64 247.64s110.87 247.64 247.64 247.64 247.64-110.87 247.64-247.64-110.87-247.64-247.64-247.64m2.942 31.691c120.9 0 218.9 98 218.9 218.9s-98 218.9-218.9 218.9-218.93-98-218.93-218.9 98.03-218.9 218.93-218.9"
         id="path8" />
    </g>
    <path
       d="m253.04 7.859c-135.42 0-245.19 109.78-245.19 245.19 0 135.42 109.78 245.19 245.19 245.19 135.42 0 245.19-109.78 245.19-245.19 0-135.42-109.78-245.19-245.19-245.19zm0 26.297c120.9 0 218.9 98 218.9 218.9s-98 218.9-218.9 218.9-218.93-98-218.93-218.9 98.03-218.9 218.93-218.9z"
       fill="#009689"
       stroke="#000000"
       stroke-opacity=".31"
       stroke-width="4.904"
       id="path12" />
  </g>
  <path
     d="m305.81 98.66c-31.342.173-62.706-.306-94.03.284-22.431 4.439-27.378 30.809-39.42 46.818-10.399 12.881-13.607 32.666-1.761 45.741 15.392 16.948 31.714 32.392 47.938 48.531 23.528 23.19 46.48 47.28 70.06 70.06-5.414 10.234 4.067 32.32-17.813 10.438-25.9-25.9-52.39-51.06-74.37-74.969-23.789-23.789-24.651-30.973-44.518-31.348-19.715-1.454-38.19-.096-57.628 3.097 4.432 8.249.206.406 14.271 16.564 13.578 13.578-1.466 10.682-2.612 15.561-7.22 13.817-20.451 28.796-9.767 44.36 15.207 26.521 30.17 53.19 45.529 79.62 33.33 33.33 65.49 64.816 95.91 95.24 1.932 4.066 10.01 2.922 16.431 3.062 86.52 1.305 169.67-55.39 201.59-135.57 13.474-32.68 18.68-68.66 15.352-103.84-31.77-32.879-67.944-66.769-96.24-98.06-6.01-.229-12.746 9.265-17.291 6.842-9.935-8.988-18.538-21-29.523-29.647-5.356-6.848-32.373-2.794-13.366-6.531-13.694.706-.725-1.679-5.519-1.947-14.892 1.128 3.675-2.426-1.372-2.469-14.57.875 4.948-1.707-1.844-1.844"
     fill-opacity=".235"
     id="path16" />
  <g
     fill="#009689"
     transform="matrix(1.1267 0 0 1.1267 39.675 39.677)"
     id="g30">
    <path
       d="m 336.08,227.3 c -6.629,8.105 -16.66,12.918 -27.28,12.824 0,0 -67.906,0 -67.906,0.016 l 0.031,-20.11 c 0.008,-3.109 -1.566,-3.676 -3.469,-1.211 -8.793,11.371 -31.2,41.699 -31.2,55.641 0,13.934 22.402,44.27 31.2,55.637 1.902,2.465 3.477,1.902 3.469,-1.211 l -0.031,-20.03 h 34.609 c 8.348,0.059 16.473,-4.227 20.938,-11.957 l 40.02,-69.35 c 1.555,-2.699 1.59,-2.664 -0.383,-0.254"
       id="path18"
       style="fill:#ff3300"
       inkscape:connector-curvature="0" />
    <path
       d="m 294.77,84.28 -17.355,10.06 c 0.012,0 -8.684,-15.184 -12.156,-21.2 -4.914,-8.449 -13.949,-13.77 -23.719,-13.742 -9.785,0.012 -18.836,5.371 -23.637,13.883 -0.02,0.016 -7.98,13.723 -15.984,27.672 l 16.15,27.973 -17.563,9.84 c -2.711,1.52 -2.43,3.145 0.656,3.555 14.246,1.926 51.719,6.148 63.797,-0.824 12.06,-6.969 27.13,-41.512 32.59,-54.813 1.18,-2.879 -0.09,-3.969 -2.781,-2.406"
       id="path20"
       style="fill:#990000"
       inkscape:connector-curvature="0" />
    <path
       d="m 278.22,152.52 -10.695,6.176 c -13.48,7.781 -18.1,25.02 -10.309,38.492 l 20.594,35.668 c 16.09,0 31.945,0.008 31.961,0.008 9.801,0.074 18.918,-5.164 23.828,-13.621 4.879,-8.461 4.836,-18.996 -0.129,-27.426 0,-0.012 -7.621,-13.199 -16.746,-28.996 -7.789,-13.477 -25.03,-18.09 -38.504,-10.301"
       id="path22"
       style="fill:#990000"
       inkscape:connector-curvature="0" />
    <path
       d="m 49.602,224.97 40.04,69.35 c 1.555,2.699 1.508,2.699 0.402,-0.211 -3.691,-9.781 -2.855,-20.887 2.531,-30.05 l 33.961,-58.809 17.398,10.09 c 2.695,1.563 3.969,0.48 2.785,-2.398 -5.449,-13.301 -20.52,-47.867 -32.586,-54.832 -12.08,-6.965 -49.555,-2.734 -63.797,-0.809 -3.09,0.418 -3.387,2.066 -0.688,3.613 l 17.402,9.988 -17.324,29.98 c -4.234,7.188 -4.578,16.363 -0.125,24.09"
       id="path24"
       style="fill:#ff3300"
       inkscape:connector-curvature="0" />
    <path
       d="m 114.38,240.87 c -8.02,13.93 -15.965,27.672 -15.977,27.695 -4.953,8.418 -5.01,18.926 -0.105,27.402 4.891,8.48 14.02,13.711 23.793,13.637 h 33.492 c 15.566,0 28.19,-12.617 28.19,-28.18 v -12.375 c 0,-15.563 -12.613,-28.18 -28.18,-28.18"
       id="path26"
       style="fill:#990000"
       inkscape:connector-curvature="0" />
    <path
       d="m 156.04,52.36 c -8.926,0 -16.453,5.03 -20.789,12.13 -3.992,6.473 -13.781,23.445 -22.17,38.08 -7.738,13.504 -3.043,30.781 10.434,38.566 l 10.922,6.301 c 13.48,7.781 30.703,3.156 38.48,-10.328 13.887,-24.06 33.754,-58.49 38.926,-67.39 5.332,-9.184 14.09,-15.27 24.273,-16.91 3.078,-0.496 3.102,-0.445 -0.016,-0.445"
       id="path28"
       style="fill:#ff3300"
       inkscape:connector-curvature="0" />
  </g>
</svg>
