<?xml version="1.0" encoding="UTF-8" standalone="no"?>
<svg
   xmlns:dc="http://purl.org/dc/elements/1.1/"
   xmlns:cc="http://creativecommons.org/ns#"
   xmlns:rdf="http://www.w3.org/1999/02/22-rdf-syntax-ns#"
   xmlns:svg="http://www.w3.org/2000/svg"
   xmlns="http://www.w3.org/2000/svg"
   xmlns:sodipodi="http://sodipodi.sourceforge.net/DTD/sodipodi-0.dtd"
   xmlns:inkscape="http://www.inkscape.org/namespaces/inkscape"
   height="512"
   viewBox="0 0 512 512"
   width="512"
   version="1.1"
   id="svg18"
   sodipodi:docname="checkbox-touch.svg"
   inkscape:version="0.92.2 2405546, 2018-03-11">
  <metadata
     id="metadata24">
    <rdf:RDF>
      <cc:Work
         rdf:about="">
        <dc:format>image/svg+xml</dc:format>
        <dc:type
           rdf:resource="http://purl.org/dc/dcmitype/StillImage" />
      </cc:Work>
    </rdf:RDF>
  </metadata>
  <defs
     id="defs22" />
  <sodipodi:namedview
     pagecolor="#ffffff"
     bordercolor="#666666"
     borderopacity="1"
     objecttolerance="10"
     gridtolerance="10"
     guidetolerance="10"
     inkscape:pageopacity="0"
     inkscape:pageshadow="2"
     inkscape:window-width="640"
     inkscape:window-height="480"
     id="namedview20"
     showgrid="false"
     inkscape:zoom="0.4609375"
     inkscape:cx="256"
     inkscape:cy="256"
     inkscape:window-x="0"
     inkscape:window-y="27"
     inkscape:window-maximized="0"
     inkscape:current-layer="svg18" />
  <path
     d="m471.95 253.05c0 120.9-98.01 218.9-218.9 218.9-120.9 0-218.9-98.01-218.9-218.9 0-120.9 98.01-218.9 218.9-218.9 120.9 0 218.9 98.01 218.9 218.9"
     fill="#363636"
     fill-rule="evenodd"
     id="path2" />
  <path
     d="m256 1c-140.83 0-255 114.17-255 255 0 140.83 114.17 255 255 255 140.83 0 255-114.17 255-255 0-140.83-114.17-255-255-255m8.827 44.931c120.9 0 218.9 98 218.9 218.9 0 120.9-98 218.9-218.9 218.9-120.9 0-218.93-98-218.93-218.9 0-120.9 98.03-218.9 218.93-218.9"
     fill-opacity=".067"
     fill-rule="evenodd"
     id="path4" />
  <g
     fill-opacity=".129"
     fill-rule="evenodd"
     id="g10">
    <path
       d="m256 4.433c-138.94 0-251.57 112.63-251.57 251.57 0 138.94 112.63 251.57 251.57 251.57 138.94 0 251.57-112.63 251.57-251.57 0-138.94-112.63-251.57-251.57-251.57m5.885 38.556c120.9 0 218.9 98 218.9 218.9 0 120.9-98 218.9-218.9 218.9-120.9 0-218.93-98-218.93-218.9 0-120.9 98.03-218.9 218.93-218.9"
       id="path6" />
    <path
       d="m256 8.356c-136.77 0-247.64 110.87-247.64 247.64 0 136.77 110.87 247.64 247.64 247.64 136.77 0 247.64-110.87 247.64-247.64 0-136.77-110.87-247.64-247.64-247.64m2.942 31.691c120.9 0 218.9 98 218.9 218.9 0 120.9-98 218.9-218.9 218.9-120.9 0-218.93-98-218.93-218.9 0-120.9 98.03-218.9 218.93-218.9"
       id="path8" />
  </g>
  <path
     d="m253.04 7.859c-135.42 0-245.19 109.78-245.19 245.19 0 135.42 109.78 245.19 245.19 245.19 135.42 0 245.19-109.78 245.19-245.19 0-135.42-109.78-245.19-245.19-245.19zm0 26.297c120.9 0 218.9 98 218.9 218.9 0 120.9-98 218.9-218.9 218.9-120.9 0-218.93-98-218.93-218.9 0-120.9 98.03-218.9 218.93-218.9z"
     fill="#009689"
     fill-rule="evenodd"
     stroke="#000000"
     stroke-opacity=".31"
     stroke-width="4.904"
     id="path12" />
  <path
     d="m401.08383 172.56944l-36.26335 7.96001-111.9212-75.65909-26.40925 48.10845c-42.94187 46.21487-56.07735 102.67569-83.32313 154.28609l35.69492 28.42949-15.95858 36.66817 150.59945 92.34085 90.67874-38.90183 58.36008-88.84221 9.32444-116.19597"
     opacity=".25"
     id="path14" />
  <path
     d="m 231.87292,105.16997 -10.19528,30.58582 c -10.29036,2.77861 -20.16869,6.89899 -29.38142,12.25548 L 163.3691,133.5477 133.47,163.44676 l 14.44243,28.88485 c -5.31423,9.2233 -9.39233,19.10163 -12.12868,29.38142 l -30.63866,10.23753 v 42.26021 l 30.58584,10.19529 c 2.77861,10.29036 6.89898,20.16869 12.25546,29.38142 l -14.46356,28.92712 29.8991,29.89909 28.88486,-14.44243 c 9.22329,5.31421 19.05935,9.39232 29.33915,12.12867 l 10.2798,30.63867 h 21.10898 v -73.91312 c -40.8445,0 -73.95538,-33.11088 -73.95538,-73.95538 0,-40.84449 33.11088,-73.95537 73.95538,-73.95537 v -73.95534 z m 145.29061,42.26021 -103.00927,110.93302 -39.61895,-39.61895 -23.77137,23.77137 63.39032,63.39031 126.78065,-134.70443 z"
     id="path16"
     style="fill:#009689;fill-opacity:0.98299997"
     inkscape:connector-curvature="0" />
</svg>
