<?xml version="1.0" encoding="UTF-8" standalone="no"?>
<svg
   xmlns:dc="http://purl.org/dc/elements/1.1/"
   xmlns:cc="http://creativecommons.org/ns#"
   xmlns:rdf="http://www.w3.org/1999/02/22-rdf-syntax-ns#"
   xmlns:svg="http://www.w3.org/2000/svg"
   xmlns="http://www.w3.org/2000/svg"
   xmlns:sodipodi="http://sodipodi.sourceforge.net/DTD/sodipodi-0.dtd"
   xmlns:inkscape="http://www.inkscape.org/namespaces/inkscape"
   height="512"
   viewBox="0 0 512 512"
   width="512"
   version="1.1"
   id="svg26"
   sodipodi:docname="google-chrome.svg"
   inkscape:version="0.92.2 2405546, 2018-03-11">
  <metadata
     id="metadata32">
    <rdf:RDF>
      <cc:Work
         rdf:about="">
        <dc:format>image/svg+xml</dc:format>
        <dc:type
           rdf:resource="http://purl.org/dc/dcmitype/StillImage" />
      </cc:Work>
    </rdf:RDF>
  </metadata>
  <defs
     id="defs30" />
  <sodipodi:namedview
     pagecolor="#ffffff"
     bordercolor="#666666"
     borderopacity="1"
     objecttolerance="10"
     gridtolerance="10"
     guidetolerance="10"
     inkscape:pageopacity="0"
     inkscape:pageshadow="2"
     inkscape:window-width="1206"
     inkscape:window-height="541"
     id="namedview28"
     showgrid="false"
     inkscape:zoom="0.4609375"
     inkscape:cx="256"
     inkscape:cy="256"
     inkscape:window-x="0"
     inkscape:window-y="27"
     inkscape:window-maximized="0"
     inkscape:current-layer="svg26" />
  <path
     d="m471.95 253.05c0 120.9-98.01 218.9-218.9 218.9-120.9 0-218.9-98.01-218.9-218.9 0-120.9 98.01-218.9 218.9-218.9 120.9 0 218.9 98.01 218.9 218.9"
     fill="#363636"
     fill-rule="evenodd"
     id="path2" />
  <path
     d="m261.81151 83.741731c-93.90536 0-170.041136 75.009669-170.041136 167.526149l.0074.007c.0011 46.25825 19.033946 88.13122 49.803496 118.45251l.29097.28698c-.0953-.0936-.19572-.18573-.29097-.2799l138.0968 101.44323c113.30259-27.33774 174.0154-91.25237 196.0866-202.87967l-89.8272-123.83518c-30.76432-30.31616-77.15598-60.700667-124.10864-60.700667"
     opacity=".25"
     id="path4" />
  <path
     d="m256 1c-140.83 0-255 114.17-255 255 0 140.83 114.17 255 255 255 140.83 0 255-114.17 255-255 0-140.83-114.17-255-255-255m8.827 44.931c120.9 0 218.9 98 218.9 218.9 0 120.9-98 218.9-218.9 218.9-120.9 0-218.93-98-218.93-218.9 0-120.9 98.03-218.9 218.93-218.9"
     fill-opacity=".067"
     fill-rule="evenodd"
     id="path6" />
  <g
     fill-opacity=".129"
     fill-rule="evenodd"
     id="g12">
    <path
       d="m256 4.433c-138.94 0-251.57 112.63-251.57 251.57 0 138.94 112.63 251.57 251.57 251.57 138.94 0 251.57-112.63 251.57-251.57 0-138.94-112.63-251.57-251.57-251.57m5.885 38.556c120.9 0 218.9 98 218.9 218.9 0 120.9-98 218.9-218.9 218.9-120.9 0-218.93-98-218.93-218.9 0-120.9 98.03-218.9 218.93-218.9"
       id="path8" />
    <path
       d="m256 8.356c-136.77 0-247.64 110.87-247.64 247.64 0 136.77 110.87 247.64 247.64 247.64 136.77 0 247.64-110.87 247.64-247.64 0-136.77-110.87-247.64-247.64-247.64m2.942 31.691c120.9 0 218.9 98 218.9 218.9 0 120.9-98 218.9-218.9 218.9-120.9 0-218.93-98-218.93-218.9 0-120.9 98.03-218.9 218.93-218.9"
       id="path10" />
  </g>
  <path
     d="m253.04 7.859c-135.42 0-245.19 109.78-245.19 245.19 0 135.42 109.78 245.19 245.19 245.19 135.42 0 245.19-109.78 245.19-245.19 0-135.42-109.78-245.19-245.19-245.19zm0 26.297c120.9 0 218.9 98 218.9 218.9 0 120.9-98 218.9-218.9 218.9-120.9 0-218.93-98-218.93-218.9 0-120.9 98.03-218.9 218.93-218.9z"
     fill="#009689"
     fill-rule="evenodd"
     stroke="#000000"
     stroke-opacity=".31"
     stroke-width="4.904"
     id="path14" />
  <g
     transform="matrix(2.3652906 0 0 2.3652906 -44.403603 -1934.8143)"
     id="g24">
    <path
       d="m 128.00001,853.70593 c -21.09623,0 -40.018466,9.2427 -52.963474,23.89675 l 23.130828,40.0194 c 3.084946,-13.62809 15.293686,-23.85846 29.832646,-23.85846 v -0.0766 h 63.64807 c -11.41838,-23.65741 -35.61318,-39.9811 -63.64807,-39.9811 z"
       overflow="visible"
       id="path16"
       style="overflow:visible;fill:#00756a"
       inkscape:connector-curvature="0" />
    <path
       d="m 69.789974,884.30449 c -7.845597,11.38289 -12.446224,25.18343 -12.446224,40.0577 0,34.23197 24.325879,62.7784 56.63989,69.27759 l 23.09254,-40.05769 c -2.87148,0.89625 -5.91584,1.37866 -9.07617,1.37866 -12.62892,0 -23.52281,-7.69129 -28.185914,-18.65019 -0.0049,-0.011 0.0049,-0.0275 0,-0.0382 z"
       overflow="visible"
       id="path18"
       style="overflow:visible;fill:#006e64"
       inkscape:connector-curvature="0" />
    <path
       d="m128.00001 901.23136c-12.77439 0-23.13083 10.35644-23.13083 23.13083 0 12.77438 10.35644 23.13082 23.13083 23.13082 12.77438 0 23.13082-10.35644 23.13082-23.13082 0-12.77439-10.35644-23.13083-23.13082-23.13083z"
       fill="#009689"
       overflow="visible"
       id="path20" />
    <path
       d="m148.37352 901.57602c6.26927 5.60968 10.22505 13.74383 10.22505 22.78617 0 6.95446-2.34799 13.3871-6.28056 18.5353l.0382.0382-29.94753 51.85288c1.84397.14422 3.71015.22978 5.59122.22978 39.03049 0 70.65626-31.62577 70.65626-70.65626 0-7.97962-1.35449-15.63251-3.79131-22.78616l-46.49143 0z"
       fill="#009689"
       overflow="visible"
       id="path22" />
  </g>
</svg>
