<?xml version="1.0" encoding="UTF-8" standalone="no"?>
<svg
   xmlns:dc="http://purl.org/dc/elements/1.1/"
   xmlns:cc="http://creativecommons.org/ns#"
   xmlns:rdf="http://www.w3.org/1999/02/22-rdf-syntax-ns#"
   xmlns:svg="http://www.w3.org/2000/svg"
   xmlns="http://www.w3.org/2000/svg"
   xmlns:sodipodi="http://sodipodi.sourceforge.net/DTD/sodipodi-0.dtd"
   xmlns:inkscape="http://www.inkscape.org/namespaces/inkscape"
   height="512"
   viewBox="0 0 512 512"
   width="512"
   version="1.1"
   id="svg14"
   sodipodi:docname="folder-documents.svg"
   inkscape:version="0.92.2 2405546, 2018-03-11">
  <metadata
     id="metadata20">
    <rdf:RDF>
      <cc:Work
         rdf:about="">
        <dc:format>image/svg+xml</dc:format>
        <dc:type
           rdf:resource="http://purl.org/dc/dcmitype/StillImage" />
      </cc:Work>
    </rdf:RDF>
  </metadata>
  <defs
     id="defs18" />
  <sodipodi:namedview
     pagecolor="#ffffff"
     bordercolor="#666666"
     borderopacity="1"
     objecttolerance="10"
     gridtolerance="10"
     guidetolerance="10"
     inkscape:pageopacity="0"
     inkscape:pageshadow="2"
     inkscape:window-width="1810"
     inkscape:window-height="1118"
     id="namedview16"
     showgrid="false"
     inkscape:zoom="256"
     inkscape:cx="427.10789"
     inkscape:cy="57.438252"
     inkscape:window-x="0"
     inkscape:window-y="0"
     inkscape:window-maximized="0"
     inkscape:current-layer="svg14" />
  <path
     d="m108.6312 57.3705c-7.963 0-15.228 2.293-20.693 6.22-4.545 3.266-7.751 7.872-8.752 13.13h-11.909c-16.447 0-29.883 13.03-29.883 29.2v66.736c0 16.17 13.436 29.19 29.883 29.19h377.47c16.447 0 29.883-13.03 29.883-29.19v-66.736c0-16.17-13.436-29.2-29.883-29.2h-262.91c-1-5.256-4.208-9.862-8.753-13.13-5.465-3.927-12.73-6.22-20.693-6.22h-43.761"
     fill="#004A44"
     fill-rule="evenodd"
     id="path2" />
  <path
     d="m 37.3612,118.4605 c -19.928,0 -38.06,15.818 -36.23,35.853 l 24.26,265.41 c 1.733,18.966 16.271,34.947 36.2,34.947 h 383.41 c 19.933,0 34.1,-16.05 36.2,-34.853 l 29.632,-265.41 c 1.123,-10.05 -3.137,-19.263 -9.971,-25.663 -6.833,-6.399 -16.258,-10.284 -26.22,-10.284 h -437.27"
     id="path4"
     style="fill:#363636;fill-rule:evenodd;stroke:#00a193"
     inkscape:connector-curvature="0" />
  <path
     d="m108.5512 57.2905c-7.963 0-15.11 2.403-20.572 6.33-4.545 3.266-7.702 7.931-8.703 13.187h-12.13c-17.677 0-29.802 12.771-29.802 30.661v3.956c0-16.17 13.355-29.27 29.802-29.27h14.286c1-5.256 2-9.657 6.549-12.923 5.465-3.927 12.609-6.33 20.572-6.33h43.78c7.963 0 15.371 2.403 20.835 6.33 4.545 3.266 5.766 7.668 6.769 12.923h264.88c16.447 0 29.802 11.455 29.802 27.625v-3.956c0-16.17-13.355-29.01-29.802-29.01h-262.95c-1-5.256-4.159-9.921-8.703-13.187-5.465-3.927-12.872-6.33-20.835-6.33z"
     fill="#009689"
     fill-rule="evenodd"
     opacity=".764"
     id="path6" />
  <path
     d="m37.3512 118.4505c-19.928 0-38.05 15.84-36.22 35.875l.406 4.375c3-15.936 18.732-27.563 35.813-27.563h437.28c9.966 0 19.386 3.882 26.22 10.281 4.736 4.435 8.234 10.208 9.563 16.688l.406-3.688c1.123-10.05-3.134-19.288-9.969-25.688-6.833-6.399-16.252-10.281-26.22-10.281h-437.28"
     fill="#009689"
     fill-rule="evenodd"
     opacity=".4"
     id="path8" />
  <path
     d="m302.26193 161.59818l55.53427 56.19982h-55.53427z"
     fill="#009689"
     id="path10" />
  <path
     d="m357.7962 395.96573c0 8.6365-6.98828 15.62477-15.62476 15.62477h-172.33831c-8.62866 0-15.62476-6.98827-15.62476-15.62477v-218.75062c0-8.63649 6.9961-15.62476 15.62476-15.62476h116.52998v66.01277c0 4.31824 3.49414 7.81238 7.81238 7.81238h63.61875v160.55415m-180.09-23.52915h78.3v-17.6175h-78.3zm0-48.9375h78.3v-17.6175h-78.3zm78.3-115.4925h-78.3v17.6175h78.3zm74.385 48.9375h-152.685v17.6175h152.685zm0 48.9375h-48.9375v66.555h48.9375z"
     fill="#009689"
     id="path12" />
</svg>
