<?xml version="1.0" encoding="UTF-8" standalone="no"?>
<svg
   xmlns:dc="http://purl.org/dc/elements/1.1/"
   xmlns:cc="http://creativecommons.org/ns#"
   xmlns:rdf="http://www.w3.org/1999/02/22-rdf-syntax-ns#"
   xmlns:svg="http://www.w3.org/2000/svg"
   xmlns="http://www.w3.org/2000/svg"
   xmlns:sodipodi="http://sodipodi.sourceforge.net/DTD/sodipodi-0.dtd"
   xmlns:inkscape="http://www.inkscape.org/namespaces/inkscape"
   height="512"
   viewBox="0 0 512 512"
   width="512"
   version="1.1"
   id="svg146"
   sodipodi:docname="folder-network.svg"
   inkscape:version="0.92.2 2405546, 2018-03-11">
  <metadata
     id="metadata152">
    <rdf:RDF>
      <cc:Work
         rdf:about="">
        <dc:format>image/svg+xml</dc:format>
        <dc:type
           rdf:resource="http://purl.org/dc/dcmitype/StillImage" />
      </cc:Work>
    </rdf:RDF>
  </metadata>
  <defs
     id="defs150" />
  <sodipodi:namedview
     pagecolor="#ffffff"
     bordercolor="#666666"
     borderopacity="1"
     objecttolerance="10"
     gridtolerance="10"
     guidetolerance="10"
     inkscape:pageopacity="0"
     inkscape:pageshadow="2"
     inkscape:window-width="1643"
     inkscape:window-height="1123"
     id="namedview148"
     showgrid="false"
     inkscape:zoom="3.6875"
     inkscape:cx="395.64843"
     inkscape:cy="338.33898"
     inkscape:window-x="0"
     inkscape:window-y="0"
     inkscape:window-maximized="0"
     inkscape:current-layer="svg146" />
  <text
     x="729.64"
     y="233.72"
     id="text2" />
  <text
     x="1310.91"
     y="153.72"
     id="text4" />
  <text
     x="239.33"
     y="-27.54"
     id="text6" />
  <text
     x="1337.38"
     y="-244.01"
     id="text8" />
  <text
     x="1918.65"
     y="-324.02"
     id="text10" />
  <text
     x="1529.53"
     y="-796.42"
     id="text12" />
  <text
     x="2110.8"
     y="-876.42"
     id="text14" />
  <g
     transform="translate(.0012 -.0195)"
     id="g20">
    <text
       x="277.99"
       y="538.32"
       id="text16" />
    <text
       x="3833.78"
       y="-509.14"
       id="text18" />
  </g>
  <text
     x="4415.05"
     y="-589.16"
     id="text22" />
  <text
     x="3343.47"
     y="-770.41"
     id="text24" />
  <text
     x="4441.52"
     y="-986.89"
     id="text26" />
  <text
     x="5022.79"
     y="-1066.89"
     id="text28" />
  <text
     x="4633.67"
     y="-1539.29"
     id="text30" />
  <text
     x="5214.93"
     y="-1619.29"
     id="text32" />
  <text
     x="3382.13"
     y="-204.58"
     id="text34" />
  <g
     fill-rule="evenodd"
     transform="translate(.0012 -.0195)"
     id="g40">
    <path
       d="m108.63 57.39c-7.963 0-15.228 2.293-20.693 6.22-4.545 3.266-7.751 7.872-8.752 13.13h-11.909c-16.447 0-29.883 13.03-29.883 29.2v66.736c0 16.17 13.436 29.19 29.883 29.19h377.47c16.447 0 29.883-13.03 29.883-29.19v-66.736c0-16.17-13.436-29.2-29.883-29.2h-262.91c-1-5.256-4.208-9.862-8.753-13.13-5.465-3.927-12.73-6.22-20.693-6.22h-43.761"
       fill="#004A44"
       id="path36" />
    <path
       d="m 37.36,118.48 c -19.928,0 -38.06,15.818 -36.23,35.853 l 24.26,265.41 c 1.733,18.966 16.271,34.947 36.2,34.947 H 445 c 19.933,0 34.1,-16.05 36.2,-34.853 l 29.632,-265.41 c 1.123,-10.05 -3.137,-19.263 -9.971,-25.663 -6.833,-6.399 -16.258,-10.284 -26.22,-10.284 H 37.371"
       id="path38"
       style="fill:#363636;stroke:#00a193"
       inkscape:connector-curvature="0" />
  </g>
  <g
     fill="#009689"
     fill-rule="evenodd"
     transform="translate(.0012 -.0195)"
     id="g46">
    <path
       d="m108.55 57.31c-7.963 0-15.11 2.403-20.572 6.33-4.545 3.266-7.702 7.931-8.703 13.187h-12.13c-17.677 0-29.802 12.771-29.802 30.661v3.956c0-16.17 13.355-29.27 29.802-29.27h14.286c1-5.256 2-9.657 6.549-12.923 5.465-3.927 12.609-6.33 20.572-6.33h43.78c7.963 0 15.371 2.403 20.835 6.33 4.545 3.266 5.766 7.668 6.769 12.923h264.88c16.447 0 29.802 11.455 29.802 27.625v-3.956c0-16.17-13.355-29.01-29.802-29.01h-262.95c-1-5.256-4.159-9.921-8.703-13.187-5.465-3.927-12.872-6.33-20.835-6.33z"
       opacity=".764"
       id="path42" />
    <path
       d="m37.35 118.47c-19.928 0-38.05 15.84-36.22 35.875l.406 4.375c3-15.936 18.732-27.563 35.813-27.563h437.28c9.966 0 19.386 3.882 26.22 10.281 4.736 4.435 8.234 10.208 9.563 16.688l.406-3.688c1.123-10.05-3.134-19.288-9.969-25.688-6.833-6.399-16.252-10.281-26.22-10.281h-437.28"
       opacity=".4"
       id="path44" />
  </g>
  <text
     x="90.12"
     y="140.64"
     id="text48" />
  <text
     x="671.39"
     y="60.64"
     id="text50" />
  <text
     x="-400.19"
     y="-120.62"
     id="text52" />
  <text
     x="697.86"
     y="-337.09"
     id="text54" />
  <text
     x="1279.13"
     y="-417.1"
     id="text56" />
  <text
     x="890.01"
     y="-889.5"
     id="text58" />
  <text
     x="1471.27"
     y="-969.5"
     id="text60" />
  <g
     transform="translate(.0012 -.0195)"
     id="g66">
    <text
       x="-361.53"
       y="445.24"
       id="text62" />
    <text
       x="-2585.36"
       y="426.28"
       id="text64" />
  </g>
  <text
     x="-1879.02"
     y="270.63"
     id="text68" />
  <text
     x="-1845.65"
     y="262.51"
     id="text70" />
  <text
     x="-695.23"
     y="108.1"
     id="text72" />
  <text
     x="-113.97"
     y="28.1"
     id="text74" />
  <text
     x="-1185.55"
     y="-153.16"
     id="text76" />
  <text
     x="-87.5"
     y="-369.63"
     id="text78" />
  <text
     x="493.77"
     y="-449.63"
     id="text80" />
  <text
     x="104.65"
     y="-922.03"
     id="text82" />
  <text
     x="685.91"
     y="-1002.04"
     id="text84" />
  <g
     transform="translate(.0012 -.0195)"
     id="g90">
    <text
       x="-1146.89"
       y="412.7"
       id="text86" />
    <text
       x="-745.68"
       y="-630.89"
       id="text88" />
  </g>
  <text
     x="-164.41"
     y="-710.91"
     id="text92" />
  <text
     x="-1235.99"
     y="-892.17"
     id="text94" />
  <text
     x="-137.94"
     y="-1108.64"
     id="text96" />
  <text
     x="443.32"
     y="-1188.65"
     id="text98" />
  <text
     x="54.2"
     y="-1661.05"
     id="text100" />
  <text
     x="635.47"
     y="-1741.05"
     id="text102" />
  <g
     transform="translate(.0012 -.0195)"
     id="g108">
    <text
       x="-1197.34"
       y="-326.31"
       id="text104" />
    <text
       x="2358.46"
       y="-1373.77"
       id="text106" />
  </g>
  <text
     x="2939.72"
     y="-1453.79"
     id="text110" />
  <text
     x="1868.14"
     y="-1635.04"
     id="text112" />
  <text
     x="2966.19"
     y="-1851.52"
     id="text114" />
  <text
     x="3547.46"
     y="-1931.52"
     id="text116" />
  <text
     x="3158.34"
     y="-2403.92"
     id="text118" />
  <text
     x="3739.61"
     y="-2483.92"
     id="text120" />
  <g
     transform="translate(.0012 -.0195)"
     id="g126">
    <text
       x="1906.8"
       y="-1069.19"
       id="text122" />
    <text
       x="-2635.81"
       y="-315.11"
       id="text124" />
  </g>
  <text
     x="-2635.81"
     y="-315.13"
     id="text128" />
  <text
     x="-2969.36"
     y="317.78"
     id="text130" />
  <text
     x="-2263.02"
     y="162.15"
     id="text132" />
  <g
     fill="#009689"
     fill-rule="evenodd"
     transform="matrix(1.78319 0 0 1.78319 -982.9588 -237.6795)"
     id="g144">
    <rect
       height="49.52"
       rx="6.436"
       width="81.977"
       x="653.81"
       y="223.91"
       id="rect134" />
    <path
       d="m686.81 282.31v10.906h-84.12v10.156 4.656 13.156h15.531v-13.156h68.59v14.09h15.531v-14.09h68.34v14.375h15.531v-14.375-3.406-11.406h-83.87v-10.906h-15.531"
       id="path136" />
    <rect
       height="32.791"
       rx="6.436"
       width="53.871"
       x="750.85"
       y="331.32"
       id="rect138" />
    <rect
       height="32.791"
       rx="6.436"
       width="53.871"
       x="584.88"
       y="331.32"
       id="rect140" />
    <rect
       height="32.791"
       rx="6.436"
       width="53.871"
       x="667.09"
       y="331.32"
       id="rect142" />
  </g>
</svg>
