<?xml version="1.0" encoding="UTF-8" standalone="no"?>
<svg
   xmlns:dc="http://purl.org/dc/elements/1.1/"
   xmlns:cc="http://creativecommons.org/ns#"
   xmlns:rdf="http://www.w3.org/1999/02/22-rdf-syntax-ns#"
   xmlns:svg="http://www.w3.org/2000/svg"
   xmlns="http://www.w3.org/2000/svg"
   xmlns:sodipodi="http://sodipodi.sourceforge.net/DTD/sodipodi-0.dtd"
   xmlns:inkscape="http://www.inkscape.org/namespaces/inkscape"
   height="512"
   viewBox="0 0 512 512"
   width="512"
   version="1.1"
   id="svg18"
   sodipodi:docname="folder-recent.svg"
   inkscape:version="0.92.2 2405546, 2018-03-11">
  <metadata
     id="metadata24">
    <rdf:RDF>
      <cc:Work
         rdf:about="">
        <dc:format>image/svg+xml</dc:format>
        <dc:type
           rdf:resource="http://purl.org/dc/dcmitype/StillImage" />
      </cc:Work>
    </rdf:RDF>
  </metadata>
  <defs
     id="defs22" />
  <sodipodi:namedview
     pagecolor="#ffffff"
     bordercolor="#666666"
     borderopacity="1"
     objecttolerance="10"
     gridtolerance="10"
     guidetolerance="10"
     inkscape:pageopacity="0"
     inkscape:pageshadow="2"
     inkscape:window-width="1859"
     inkscape:window-height="1143"
     id="namedview20"
     showgrid="false"
     inkscape:zoom="2.6074563"
     inkscape:cx="379.30139"
     inkscape:cy="194.54087"
     inkscape:window-x="0"
     inkscape:window-y="0"
     inkscape:window-maximized="0"
     inkscape:current-layer="svg18" />
  <path
     d="m108.63121 57.3885c-7.963 0-15.228 2.293-20.693 6.22-4.545 3.266-7.751 7.872-8.752 13.13h-11.909c-16.447 0-29.883 13.03-29.883 29.2v66.736c0 16.17 13.436 29.19 29.883 29.19h377.47c16.447 0 29.883-13.03 29.883-29.19v-66.736c0-16.17-13.436-29.2-29.883-29.2h-262.91c-1-5.256-4.208-9.862-8.753-13.13-5.465-3.927-12.73-6.22-20.693-6.22h-43.761"
     fill="#004A44"
     fill-rule="evenodd"
     id="path2" />
  <path
     d="m 37.36121,118.4785 c -19.928,0 -38.06,15.818 -36.23,35.853 l 24.26,265.41 c 1.733,18.966 16.271,34.947 36.2,34.947 h 383.41 c 19.933,0 34.1,-16.05 36.2,-34.853 l 29.632,-265.41 c 1.123,-10.05 -3.137,-19.263 -9.971,-25.663 -6.833,-6.399 -16.258,-10.284 -26.22,-10.284 h -437.27"
     id="path4"
     style="fill:#363636;fill-rule:evenodd;stroke:#00a193"
     inkscape:connector-curvature="0" />
  <path
     d="m108.5512 57.3085c-7.96299 0-15.10999 2.403-20.57199 6.33-4.545 3.266-7.702 7.931-8.703 13.187h-12.13c-17.677 0-29.802 12.771-29.802 30.661v3.956c0-16.17 13.355-29.27 29.802-29.27h14.286c1-5.256 2-9.657 6.549-12.923 5.465-3.927 12.609-6.33 20.57199-6.33h43.78c7.963 0 15.371 2.403 20.835 6.33 4.545 3.266 5.766 7.668 6.769 12.923h264.88c16.447 0 29.802 11.455 29.802 27.625v-3.956c0-16.17-13.355-29.01-29.802-29.01h-262.95c-1-5.256-4.159-9.921-8.703-13.187-5.465-3.927-12.872-6.33-20.835-6.33z"
     fill="#009689"
     fill-rule="evenodd"
     opacity=".764"
     id="path6" />
  <path
     d="m37.35121 118.4685c-19.928 0-38.05 15.84-36.22 35.875l.406 4.375c3-15.936 18.732-27.563 35.813-27.563h437.27999c9.966 0 19.386 3.882 26.22 10.281 4.736 4.435 8.234 10.208 9.563 16.688l.406-3.688c1.123-10.05-3.134-19.288-9.969-25.688-6.833-6.399-16.252-10.281-26.22-10.281h-437.27999"
     fill="#009689"
     fill-rule="evenodd"
     opacity=".4"
     id="path8" />
  <path
     d="m181.92794 279.02718c.16866-.0324.41273-.0312.54237.003.12964.0339-.008.0605-.30667.059-.2983-.002-.40437-.0293-.2357-.0617z"
     fill="#009689"
     id="path10" />
  <path
     style="fill:#009689;fill-opacity:1;"
     d="m 246,184 c -36.28711,0 -67.93492,19.68999 -84.875,49 l 25.375,0 c 14.12293,-17.11304 35.57917,-28 59.5,-28 42.52592,0 77,34.47408 77,77 0,42.52592 -34.47408,77 -77,77 -42.52592,0 -77,-34.47408 -77,-77 0,-2.36346 0.22904,-4.69082 0.4375,-7 l -21.21875,0 C 148.0558,277.3105 148,279.64804 148,282 c 0,54.1239 43.8761,98 98,98 54.1239,0 98,-43.8761 98,-98 0,-54.1239 -43.8761,-98 -98,-98 z"
     id="path12" />
  <path
     style="fill:#009689;fill-opacity:1;"
     d="m 148,184 0,70 70,0 z"
     id="path14" />
  <path
     style="fill:#009689;fill-opacity:1"
     d="m 244.68977,218.5618 c -0.59205,0.10692 -1.1766,0.25189 -1.75,0.434 -6.5188,1.4599 -11.09831,7.32166 -10.9375,14 l 0,51.625 c -0.12499,4.26668 -0.13519,9.27536 2.1875,12.25 1.98416,2.54109 3.53191,3.44335 6.5625,5.208 l 34.56248,20.125 c 6.76549,3.866 15.384,1.51548 19.24999,-5.25 3.866,-6.76549 1.5155,-15.384 -5.24999,-19.25 l -29.31249,-17.0632 0,-47.6868 c 0.30139,-8.44858 -6.89618,-15.2352 -15.31249,-14.4382 z"
     id="path16" />
</svg>
