<?xml version="1.0" encoding="UTF-8" standalone="no"?>
<svg
   xmlns:dc="http://purl.org/dc/elements/1.1/"
   xmlns:cc="http://creativecommons.org/ns#"
   xmlns:rdf="http://www.w3.org/1999/02/22-rdf-syntax-ns#"
   xmlns:svg="http://www.w3.org/2000/svg"
   xmlns="http://www.w3.org/2000/svg"
   xmlns:sodipodi="http://sodipodi.sourceforge.net/DTD/sodipodi-0.dtd"
   xmlns:inkscape="http://www.inkscape.org/namespaces/inkscape"
   viewBox="0 0 512 512"
   version="1.1"
   id="svg12"
   sodipodi:docname="folder-fonts.svg"
   inkscape:version="0.92.2 2405546, 2018-03-11">
  <metadata
     id="metadata18">
    <rdf:RDF>
      <cc:Work
         rdf:about="">
        <dc:format>image/svg+xml</dc:format>
        <dc:type
           rdf:resource="http://purl.org/dc/dcmitype/StillImage" />
      </cc:Work>
    </rdf:RDF>
  </metadata>
  <defs
     id="defs16" />
  <sodipodi:namedview
     pagecolor="#ffffff"
     bordercolor="#666666"
     borderopacity="1"
     objecttolerance="10"
     gridtolerance="10"
     guidetolerance="10"
     inkscape:pageopacity="0"
     inkscape:pageshadow="2"
     inkscape:window-width="1899"
     inkscape:window-height="1143"
     id="namedview14"
     showgrid="false"
     inkscape:zoom="59"
     inkscape:cx="425.26211"
     inkscape:cy="52.730684"
     inkscape:window-x="0"
     inkscape:window-y="0"
     inkscape:window-maximized="0"
     inkscape:current-layer="svg12" />
  <path
     d="m108.6312 57.387c-7.963 0-15.228 2.293-20.693 6.22-4.545 3.266-7.751 7.872-8.752 13.13h-11.909c-16.447 0-29.883 13.03-29.883 29.2v66.736c0 16.17 13.436 29.19 29.883 29.19h377.47c16.447 0 29.883-13.03 29.883-29.19v-66.736c0-16.17-13.436-29.2-29.883-29.2h-262.91c-1-5.256-4.208-9.862-8.753-13.13-5.465-3.927-12.73-6.22-20.693-6.22h-43.761"
     fill="#004A44"
     fill-rule="evenodd"
     id="path2" />
  <path
     d="m 37.3612,118.477 c -19.928,0 -38.06,15.818 -36.23,35.853 l 24.26,265.41 c 1.733,18.966 16.271,34.947 36.2,34.947 h 383.41 c 19.933,0 34.1,-16.05 36.2,-34.853 l 29.632,-265.41 c 1.123,-10.05 -3.137,-19.263 -9.971,-25.663 -6.833,-6.399 -16.258,-10.284 -26.22,-10.284 h -437.27"
     id="path4"
     style="fill:#363636;fill-rule:evenodd;stroke:#00a193"
     inkscape:connector-curvature="0" />
  <path
     d="m108.5512 57.307c-7.963 0-15.11 2.403-20.572 6.33-4.545 3.266-7.702 7.931-8.703 13.187h-12.13c-17.677 0-29.802 12.771-29.802 30.661v3.956c0-16.17 13.355-29.27 29.802-29.27h14.286c1-5.256 2-9.657 6.549-12.923 5.465-3.927 12.609-6.33 20.572-6.33h43.78c7.963 0 15.371 2.403 20.835 6.33 4.545 3.266 5.766 7.668 6.769 12.923h264.88c16.447 0 29.802 11.455 29.802 27.625v-3.956c0-16.17-13.355-29.01-29.802-29.01h-262.95c-1-5.256-4.159-9.921-8.703-13.187-5.465-3.927-12.872-6.33-20.835-6.33z"
     fill="#009689"
     fill-rule="evenodd"
     opacity=".764"
     id="path6" />
  <path
     d="m37.3512 118.467c-19.928 0-38.05 15.84-36.22 35.875l.406 4.375c3-15.936 18.732-27.563 35.813-27.563h437.28c9.966 0 19.386 3.882 26.22 10.281 4.736 4.435 8.234 10.208 9.563 16.688l.406-3.688c1.123-10.05-3.134-19.288-9.969-25.688-6.833-6.399-16.252-10.281-26.22-10.281h-437.28"
     fill="#009689"
     fill-rule="evenodd"
     opacity=".4"
     id="path8" />
  <path
     d="m203.3912 161.607c-8.48.269-16.571 6.269-19.808 14.691l-76.881 201.45c-5.209 11.634.363 27.339 11.477 32.25 11.11 4.913 25.475-1.983 29.399-14.184l12.891-35.46h88.82l11.634 31.24c3.932 12.272 18.418 19.218 29.556 14.184 11.137-5.04 16.582-20.988 11.162-32.589l-77.19-197.06c-3.449-8.776-12.203-14.81-21.07-14.522m131.27 71.77c-6.144.195-12.12 4.536-14.463 10.638l-23.582 61.972c27.706 71.78-.007.407 27.669 71.43h43.548l8.489 22.626c2.851 8.891 13.313 13.946 21.381 10.3 8.07-3.647 11.949-15.235 8.02-23.639l-55.813-142.69c-2.497-6.358-8.826-10.847-15.249-10.638m-130.33 6.079l26.09 70.08h-51.566zm130.96 50.32l18.866 50.827h-37.26z"
     fill="#009689"
     id="path10" />
</svg>
