<?xml version="1.0" encoding="UTF-8" standalone="no"?>
<svg
   xmlns:dc="http://purl.org/dc/elements/1.1/"
   xmlns:cc="http://creativecommons.org/ns#"
   xmlns:rdf="http://www.w3.org/1999/02/22-rdf-syntax-ns#"
   xmlns:svg="http://www.w3.org/2000/svg"
   xmlns="http://www.w3.org/2000/svg"
   xmlns:sodipodi="http://sodipodi.sourceforge.net/DTD/sodipodi-0.dtd"
   xmlns:inkscape="http://www.inkscape.org/namespaces/inkscape"
   viewBox="0 0 512 512"
   version="1.1"
   id="svg12"
   sodipodi:docname="folder-torrents.svg"
   inkscape:version="0.92.2 2405546, 2018-03-11">
  <metadata
     id="metadata18">
    <rdf:RDF>
      <cc:Work
         rdf:about="">
        <dc:format>image/svg+xml</dc:format>
        <dc:type
           rdf:resource="http://purl.org/dc/dcmitype/StillImage" />
      </cc:Work>
    </rdf:RDF>
  </metadata>
  <defs
     id="defs16" />
  <sodipodi:namedview
     pagecolor="#ffffff"
     bordercolor="#666666"
     borderopacity="1"
     objecttolerance="10"
     gridtolerance="10"
     guidetolerance="10"
     inkscape:pageopacity="0"
     inkscape:pageshadow="2"
     inkscape:window-width="1364"
     inkscape:window-height="1000"
     id="namedview14"
     showgrid="false"
     inkscape:zoom="9.7153443"
     inkscape:cx="256"
     inkscape:cy="83.890273"
     inkscape:window-x="0"
     inkscape:window-y="0"
     inkscape:window-maximized="0"
     inkscape:current-layer="svg12" />
  <path
     d="m108.63121 57.388c-7.963 0-15.228 2.293-20.693 6.22-4.545 3.266-7.751 7.872-8.752 13.13h-11.909c-16.447 0-29.883 13.03-29.883 29.2v66.736c0 16.17 13.436 29.19 29.883 29.19h377.47c16.447 0 29.883-13.03 29.883-29.19v-66.736c0-16.17-13.436-29.2-29.883-29.2h-262.91c-1-5.256-4.208-9.862-8.753-13.13-5.465-3.927-12.73-6.22-20.693-6.22h-43.761"
     fill="#004A44"
     fill-rule="evenodd"
     id="path2" />
  <path
     d="m 37.36121,118.478 c -19.928,0 -38.06,15.818 -36.23,35.853 l 24.26,265.41 c 1.733,18.966 16.271,34.947 36.2,34.947 h 383.41 c 19.933,0 34.1,-16.05 36.2,-34.853 l 29.632,-265.41 c 1.123,-10.05 -3.137,-19.263 -9.971,-25.663 -6.833,-6.399 -16.258,-10.284 -26.22,-10.284 h -437.27"
     id="path4"
     style="fill:#363636;fill-rule:evenodd;stroke:#00a193"
     inkscape:connector-curvature="0" />
  <path
     d="m108.55121 57.308c-7.963 0-15.11 2.403-20.572 6.33-4.545 3.266-7.702 7.931-8.703 13.187h-12.13c-17.677 0-29.802 12.771-29.802 30.661v3.956c0-16.17 13.355-29.27 29.802-29.27h14.286c1-5.256 2-9.657 6.549-12.923 5.465-3.927 12.609-6.33 20.572-6.33h43.78c7.963 0 15.371 2.403 20.835 6.33 4.545 3.266 5.766 7.668 6.769 12.923h264.88c16.447 0 29.802 11.455 29.802 27.625v-3.956c0-16.17-13.355-29.01-29.802-29.01h-262.95c-1-5.256-4.159-9.921-8.703-13.187-5.465-3.927-12.872-6.33-20.835-6.33z"
     fill="#009689"
     fill-rule="evenodd"
     opacity=".764"
     id="path6" />
  <path
     d="m37.35121 118.468c-19.928 0-38.05 15.84-36.22 35.875l.406 4.375c3-15.936 18.732-27.563 35.813-27.563h437.28c9.966 0 19.386 3.882 26.22 10.281 4.736 4.435 8.234 10.208 9.563 16.688l.406-3.688c1.123-10.05-3.134-19.288-9.969-25.688-6.833-6.399-16.252-10.281-26.22-10.281h-437.28"
     fill="#009689"
     fill-rule="evenodd"
     opacity=".4"
     id="path8" />
  <path
     d="m238.12121 161.598c-67.35 0-121.93 55.965-121.93 125 0 69.04 54.58 125 121.93 125h157.69v-23.439h-157.69c-54.719 0-99.08-45.47-99.08-101.56 0-56.09 44.36-101.58 99.08-101.58v-23.415m0 31.24c-50.51 0-91.44 41.979-91.44 93.76 0 51.776 40.928 93.73 91.44 93.73h157.69v-23.439h-157.69c-37.882 0-68.59-31.461-68.59-70.29 0-38.832 30.708-70.32 68.59-70.32 9.205 0 17.95 1.88 25.97 5.251l8.68-21.736c-11-4.622-22.758-6.954-34.65-6.954m0 31.24c-33.673 0-60.951 27.994-60.951 62.51 0 34.518 27.28 62.49 60.951 62.49h157.69v-23.439h-157.69c-21.05 0-38.1-17.476-38.1-39.05 0-21.574 17.06-39.07 38.1-39.07 10.523 0 20.02 4.402 26.916 11.471l16.202-16.604c-11.434-11.721-26.947-18.307-43.12-18.307"
     fill="#009689"
     id="path10" />
</svg>
