<?xml version="1.0" encoding="UTF-8" standalone="no"?>
<svg
   xmlns:dc="http://purl.org/dc/elements/1.1/"
   xmlns:cc="http://creativecommons.org/ns#"
   xmlns:rdf="http://www.w3.org/1999/02/22-rdf-syntax-ns#"
   xmlns:svg="http://www.w3.org/2000/svg"
   xmlns="http://www.w3.org/2000/svg"
   xmlns:sodipodi="http://sodipodi.sourceforge.net/DTD/sodipodi-0.dtd"
   xmlns:inkscape="http://www.inkscape.org/namespaces/inkscape"
   height="512"
   viewBox="0 0 512 512"
   width="512"
   version="1.1"
   id="svg16"
   sodipodi:docname="user-home.svg"
   inkscape:version="0.92.2 2405546, 2018-03-11">
  <metadata
     id="metadata22">
    <rdf:RDF>
      <cc:Work
         rdf:about="">
        <dc:format>image/svg+xml</dc:format>
        <dc:type
           rdf:resource="http://purl.org/dc/dcmitype/StillImage" />
      </cc:Work>
    </rdf:RDF>
  </metadata>
  <defs
     id="defs20" />
  <sodipodi:namedview
     pagecolor="#ffffff"
     bordercolor="#666666"
     borderopacity="1"
     objecttolerance="10"
     gridtolerance="10"
     guidetolerance="10"
     inkscape:pageopacity="0"
     inkscape:pageshadow="2"
     inkscape:window-width="1586"
     inkscape:window-height="991"
     id="namedview18"
     showgrid="false"
     inkscape:zoom="5.2043059"
     inkscape:cx="256"
     inkscape:cy="163.76868"
     inkscape:window-x="0"
     inkscape:window-y="0"
     inkscape:window-maximized="0"
     inkscape:current-layer="svg16" />
  <path
     d="m108.63121 57.3705c-7.963 0-15.228 2.293-20.693 6.22-4.545 3.266-7.751 7.872-8.752 13.13h-11.909c-16.447 0-29.883 13.03-29.883 29.2v66.736c0 16.17 13.436 29.19 29.883 29.19h377.47c16.447 0 29.883-13.03 29.883-29.19v-66.736c0-16.17-13.436-29.2-29.883-29.2h-262.91c-1-5.256-4.208-9.862-8.753-13.13-5.465-3.927-12.73-6.22-20.693-6.22h-43.761"
     fill="#004A44"
     fill-rule="evenodd"
     id="path2" />
  <path
     d="m37.36121 118.4605c-19.928 0-38.06 15.818-36.23 35.853l24.26 265.41c1.733 18.966 16.271 34.947 36.2 34.947h383.41c19.933 0 34.1-16.05 36.2-34.853l29.632-265.41c1.123-10.05-3.137-19.263-9.971-25.663-6.833-6.399-16.258-10.284-26.22-10.284h-437.27"
     fill="#363636"
     fill-rule="evenodd"
     id="path4" />
  <path
     d="m108.5512 57.2905c-7.96299 0-15.10999 2.403-20.57199 6.33-4.545 3.266-7.702 7.931-8.703 13.187h-12.13c-17.677 0-29.802 12.771-29.802 30.661v3.956c0-16.17 13.355-29.27 29.802-29.27h14.286c1-5.256 2-9.657 6.549-12.923 5.465-3.927 12.609-6.33 20.57199-6.33h43.78c7.963 0 15.371 2.403 20.835 6.33 4.545 3.266 5.766 7.668 6.769 12.923h264.88c16.447 0 29.802 11.455 29.802 27.625v-3.956c0-16.17-13.355-29.01-29.802-29.01h-262.95c-1-5.256-4.159-9.921-8.703-13.187-5.465-3.927-12.872-6.33-20.835-6.33z"
     fill="#009689"
     fill-rule="evenodd"
     opacity=".764"
     id="path6" />
  <path
     d="m37.35121 118.4505c-19.928 0-38.05 15.84-36.22 35.875l.406 4.375c3-15.936 18.732-27.563 35.813-27.563h437.27999c9.966 0 19.386 3.882 26.22 10.281 4.736 4.435 8.234 10.208 9.563 16.688l.406-3.688c1.123-10.05-3.134-19.288-9.969-25.688-6.833-6.399-16.252-10.281-26.22-10.281h-437.27999"
     fill="#009689"
     fill-rule="evenodd"
     opacity=".4"
     id="path8" />
  <path
     d="m 158.95374,281.64892 v 126.06646 h 64.75314 v -59.52821 -4.0756 c 0,-6.16475 4.93962,-11.10601 11.10601,-11.10601 h 42.38624 c 6.16475,0 11.10601,4.93963 11.10601,11.10601 v 4.0756 59.52821 h 64.75313 V 281.64892 H 158.96189 Z"
     id="path10"
     style="fill:#009689;fill-rule:evenodd;stroke:#48d1cc;stroke-width:7.48899984;stroke-linejoin:round"
     inkscape:connector-curvature="0" />
  <path
     d="m 132.0595,283.63695 61.97059,-58.92229 61.97058,-58.92229 61.97059,58.92229 61.97058,58.92229 H 255.99223 Z"
     id="path12"
     style="fill:#009689;fill-rule:evenodd;stroke:#48d1cc;stroke-width:8.67800045;stroke-linejoin:round"
     inkscape:connector-curvature="0" />
  <path
     d="m169.35121 195.6805c-.498.101-.892.54-.892 1.07v2.165c0 .605.491 1.096 1.096 1.096h1.809v74.69h25.6v-74.68h1.809c.605 0 1.07-.491 1.07-1.096v-2.165c0-.605-.465-1.07-1.07-1.07h-29.22c-.076 0-.133-.015-.204 0"
     fill="#009689"
     fill-rule="evenodd"
     id="path14" />
</svg>
