/* XPM */
static char * close_inactive_xpm[] = {
"30 25 20 1",
" 	c None",
".	c #161616",
"+	c #616E7B",
"@	c #4B555F",
"#	c #48525B",
"$	c #64717D",
"%	c #8C98A3",
"&	c #778593",
"*	c #72808F",
"=	c #697784",
"-	c #4F5A64",
";	c #71808F",
">	c #7B8996",
",	c #83909C",
"'	c #48515B",
")	c #4B545E",
"!	c #737F8B",
"~	c #6A7886",
"{	c #4F5963",
"]	c #79838D",
"..............................",
"..............................",
"..............................",
"..............................",
"..............................",
"...........+@...#$............",
"..........+%&@.#*%=...........",
"..........@%%&-;%>-...........",
"...........@%%,%>-............",
"............-,%,'.............",
"...........#*%,%&)............",
"..........#;%>'%%&)...........",
"..........$%>-.@%%!...........",
"...........~{...@]............",
"..............................",
"..............................",
"..............................",
"..............................",
"..............................",
"..............................",
"..............................",
"..............................",
"..............................",
"..............................",
".............................."};
