/* XPM */
static char * close_active_xpm[] = {
"30 25 27 1",
" 	c None",
".	c #242424",
"+	c #818181",
"@	c #646464",
"#	c #606060",
"$	c #848484",
"%	c #F7F7F7",
"&	c #B9B9BA",
"*	c #B2B3B2",
"=	c #8B8B8B",
"-	c #B9BAB9",
";	c #696969",
">	c #B3B2B3",
",	c #BEBEBF",
"'	c #C7C7C7",
")	c #BEBEBE",
"!	c #CACACA",
"~	c #727272",
"{	c #B2B3B3",
"]	c #BAB9B9",
"^	c #636363",
"/	c #B2B2B3",
"(	c #B9B9B9",
"_	c #919191",
":	c #8D8D8D",
"<	c #686868",
"[	c #929292",
"..............................",
"..............................",
"..............................",
"..............................",
"..............................",
"...........+@...#$............",
"..........+%&@.#*%=...........",
"..........@%%-;>%,;...........",
"...........@%%'%);............",
"............;'%!~.............",
"...........#{%!%]^............",
"..........#/%)~%%(^...........",
"..........$%);.@%%_...........",
"...........:<...@[............",
"..............................",
"..............................",
"..............................",
"..............................",
"..............................",
"..............................",
"..............................",
"..............................",
"..............................",
"..............................",
".............................."};
