/* XPM */
static char * close_prelight_xpm[] = {
"30 25 24 1",
" 	c None",
".	c #3D3D3D",
"+	c #848484",
"@	c #666666",
"#	c #626262",
"$	c #888888",
"%	c #FFFFFF",
"&	c #BFBFBF",
"*	c #B8B8B8",
"=	c #8F8F8F",
"-	c #3C3C3C",
";	c #6B6B6B",
">	c #C4C4C4",
",	c #CDCDCD",
"'	c #D0D0D0",
")	c #747474",
"!	c #656565",
"~	c #3B3B3B",
"{	c #959595",
"]	c #919191",
"^	c #6A6A6A",
"/	c #969696",
"(	c #3A3A3A",
"_	c #393939",
"..............................",
"..............................",
"..............................",
"..............................",
"..............................",
"...........+@...#$............",
"..........+%&@.#*%=...........",
"----------@%%&;*%>;-----------",
"-----------@%%,%>;------------",
"------------;,%')-------------",
"-----------#*%'%&!------------",
"~~~~~~~~~~#*%>)%%&!~~~~~~~~~~~",
"~~~~~~~~~~$%>;~@%%{~~~~~~~~~~~",
"~~~~~~~~~~~]^~~~@/~~~~~~~~~~~~",
"~~~~~~~~~~~~~~~~~~~~~~~~~~~~~~",
"((((((((((((((((((((((((((((((",
"((((((((((((((((((((((((((((((",
"((((((((((((((((((((((((((((((",
"((((((((((((((((((((((((((((((",
"((((((((((((((((((((((((((((((",
"((((((((((((((((((((((((((((((",
"((((((((((((((((((((((((((((((",
"((((((((((((((((((((((((((((((",
"______________________________",
"______________________________"};
