/* XPM */
static char * close_pressed_xpm[] = {
"30 25 57 1",
" 	c None",
".	c #080808",
"+	c #090909",
"@	c #070707",
"#	c #060606",
"$	c #050505",
"%	c #040404",
"&	c #030303",
"*	c #010101",
"=	c #000000",
"-	c #010102",
";	c #010202",
">	c #989898",
",	c #828282",
"'	c #010203",
")	c #7E7E7E",
"!	c #9D9D9D",
"~	c #020202",
"{	c #9B9A99",
"]	c #F9F9F9",
"^	c #C7C7C8",
"/	c #7F7F7F",
"(	c #C2C2C2",
"_	c #A2A2A2",
":	c #828283",
"<	c #C7C8C7",
"[	c #868686",
"}	c #CBCBCC",
"|	c #020203",
"1	c #828383",
"2	c #D2D3D2",
"3	c #CBCBCB",
"4	c #858685",
"5	c #020305",
"6	c #010405",
"7	c #D5D5D5",
"8	c #8E8E8E",
"9	c #010408",
"0	c #020304",
"a	c #C8C7C7",
"b	c #818386",
"c	c #020303",
"d	c #7F8080",
"e	c #8E8D8D",
"f	c #C7C7C7",
"g	c #818485",
"h	c #9C9FA1",
"i	c #030405",
"j	c #818182",
"k	c #A7A7A7",
"l	c #030406",
"m	c #A4A4A4",
"n	c #868789",
"o	c #020508",
"p	c #A8A8A8",
"q	c #030304",
"r	c #030407",
"..++++++++++++++++++++++++++..",
".@#$%%%%%%%%%%%%%%%%%%%%%%$#@.",
"+@&************************&@+",
"+@&*======================*&@+",
"+@&********--**************&@+",
"+@&*******;>,'*')!'********&@+",
"+@%~*****-{]^,'/(]_-******~%@+",
"+@%~*****':]]<[(]}[-******~%@+",
"+@%~~~~~~~|1]]2]345~~~~~~~~%@+",
"+@%~~~~~~~~6[2]789~~~~~~~~~%@+",
"+@%&~~~~~~0/(]7]abc~~~~~~~&%@+",
"+@%&~~~~~|d(]3e]]fg~~~~~~~&%@+",
"+@%&&&&&&&h]3[ij]]k&&&&&&&&%@+",
"+@%&&&&&&&lmno&l,pi&&&&&&&&%@+",
"+@$&&&&&&&&q&&&&ir&&&&&&&&&$@+",
"+@$&&&&&&&&&&&&&&&&&&&&&&&&$@+",
"+@$%&&&&&&&&&&&&&&&&&&&&&&%$@+",
"+@$%%%%%%%%%%%%%%%%%%%%%%%%$@+",
"+@$%%%%%%%%%%%%%%%%%%%%%%%%$@+",
"+@$%%%%%%%%%%%%%%%%%%%%%%%%$@+",
"+.$%%%%%%%%%%%%%%%%%%%%%%%%$.+",
"+.$%%%%%%%%%%%%%%%%%%%%%%%%$.+",
"+.#$$$$$$$$$$$$$$$$$$$$$$$$#.+",
"+.@@######################@@.+",
"..++++++++++++++++++++++++++.."};
