/* XPM */
static char * maximize_pressed_xpm[] = {
"24 25 12 1",
" 	c None",
".	c #080808",
"+	c #090909",
"@	c #070707",
"#	c #050505",
"$	c #040404",
"%	c #020202",
"&	c #010101",
"*	c #000000",
"=	c #FFFFFF",
"-	c #060606",
";	c #030303",
"..++++++++++++++++++++..",
".@#$$$$$$$$$$$$$$$$$$#@.",
"+#%&&&&&&&&&&&&&&&&&&%#+",
"+#%******************%#+",
"+#%&&&&&&&&&&&&&&&&&&%#+",
"+#%&&&&&&&&&&&&&&&&&&%#+",
"+#%&&&&&========&&&&&%#+",
"+#%&&&&&========&&&&&%#+",
"+-;%%%%%=%%%%%%=%%%%%;-+",
"+-;%%%%%=%%%%%%=%%%%%;-+",
"+-;%%%%%=%%%%%%=%%%%%;-+",
"+-;%%%%%=%%%%%%=%%%%%;-+",
"+-;;;;;;========;;;;;;-+",
"+-;;;;;;;;;;;;;;;;;;;;-+",
"+-$;;;;;;;;;;;;;;;;;;$-+",
"+-$;;;;;;;;;;;;;;;;;;$-+",
"+-$;;;;;;;;;;;;;;;;;;$-+",
"+-$$$$$$$$$$$$$$$$$$$$-+",
"+-$$$$$$$$$$$$$$$$$$$$-+",
"+-$$$$$$$$$$$$$$$$$$$$-+",
"+-$$$$$$$$$$$$$$$$$$$$-+",
"+@#$$$$$$$$$$$$$$$$$$#@+",
"+@####################@+",
"+.@------------------@.+",
"..++++++++++++++++++++.."};
