/* XPM */
static char * maximize_prelight_xpm[] = {
"24 25 7 1",
" 	c None",
".	c #3D3D3D",
"+	c #FFFFFF",
"@	c #3C3C3C",
"#	c #3B3B3B",
"$	c #3A3A3A",
"%	c #393939",
"........................",
"........................",
"........................",
"........................",
"........................",
"........................",
"........++++++++........",
"@@@@@@@@++++++++@@@@@@@@",
"@@@@@@@@+@@@@@@+@@@@@@@@",
"@@@@@@@@+@@@@@@+@@@@@@@@",
"@@@@@@@@+@@@@@@+@@@@@@@@",
"########+######+########",
"########++++++++########",
"########################",
"########################",
"$$$$$$$$$$$$$$$$$$$$$$$$",
"$$$$$$$$$$$$$$$$$$$$$$$$",
"$$$$$$$$$$$$$$$$$$$$$$$$",
"$$$$$$$$$$$$$$$$$$$$$$$$",
"$$$$$$$$$$$$$$$$$$$$$$$$",
"$$$$$$$$$$$$$$$$$$$$$$$$",
"$$$$$$$$$$$$$$$$$$$$$$$$",
"$$$$$$$$$$$$$$$$$$$$$$$$",
"%%%%%%%%%%%%%%%%%%%%%%%%",
"%%%%%%%%%%%%%%%%%%%%%%%%"};
